<mxfile host="app.diagrams.net" modified="2024-01-26T09:23:58.540Z" agent="Mozilla/5.0 (Windows NT 10.0; Win64; x64) AppleWebKit/537.36 (KHTML, like Gecko) Chrome/120.0.0.0 Safari/537.36" etag="itXbJLt4FTvaWCYYeue6" version="23.0.2" type="github">
  <diagram name="Page-1" id="2Uum57VG1BMZlhtj_e8K">
    <mxGraphModel dx="1183" dy="594" grid="1" gridSize="10" guides="1" tooltips="1" connect="1" arrows="1" fold="1" page="1" pageScale="1" pageWidth="850" pageHeight="1100" math="0" shadow="0">
      <root>
        <mxCell id="0" />
        <mxCell id="1" parent="0" />
        <mxCell id="XZTjb5_NkRjGm1Cqy_mO-1" value="" style="shape=umlLifeline;perimeter=lifelinePerimeter;whiteSpace=wrap;html=1;container=1;dropTarget=0;collapsible=0;recursiveResize=0;outlineConnect=0;portConstraint=eastwest;newEdgeStyle={&quot;curved&quot;:0,&quot;rounded&quot;:0};participant=umlActor;strokeColor=#006633;fontColor=#006633;" vertex="1" parent="1">
          <mxGeometry x="70" y="110" width="20" height="300" as="geometry" />
        </mxCell>
        <mxCell id="XZTjb5_NkRjGm1Cqy_mO-2" value="up-web" style="shape=umlLifeline;perimeter=lifelinePerimeter;whiteSpace=wrap;html=1;container=1;dropTarget=0;collapsible=0;recursiveResize=0;outlineConnect=0;portConstraint=eastwest;newEdgeStyle={&quot;curved&quot;:0,&quot;rounded&quot;:0};strokeColor=#006633;fontColor=#006633;" vertex="1" parent="1">
          <mxGeometry x="210" y="100" width="100" height="300" as="geometry" />
        </mxCell>
        <mxCell id="XZTjb5_NkRjGm1Cqy_mO-5" value="" style="html=1;points=[[0,0,0,0,5],[0,1,0,0,-5],[1,0,0,0,5],[1,1,0,0,-5]];perimeter=orthogonalPerimeter;outlineConnect=0;targetShapes=umlLifeline;portConstraint=eastwest;newEdgeStyle={&quot;curved&quot;:0,&quot;rounded&quot;:0};strokeColor=#006633;fontColor=#006633;" vertex="1" parent="XZTjb5_NkRjGm1Cqy_mO-2">
          <mxGeometry x="45" y="90" width="10" height="170" as="geometry" />
        </mxCell>
        <mxCell id="XZTjb5_NkRjGm1Cqy_mO-3" value="up-wcms" style="shape=umlLifeline;perimeter=lifelinePerimeter;whiteSpace=wrap;html=1;container=1;dropTarget=0;collapsible=0;recursiveResize=0;outlineConnect=0;portConstraint=eastwest;newEdgeStyle={&quot;curved&quot;:0,&quot;rounded&quot;:0};strokeColor=#006633;fontColor=#006633;" vertex="1" parent="1">
          <mxGeometry x="410" y="100" width="100" height="300" as="geometry" />
        </mxCell>
        <mxCell id="XZTjb5_NkRjGm1Cqy_mO-8" value="" style="html=1;points=[[0,0,0,0,5],[0,1,0,0,-5],[1,0,0,0,5],[1,1,0,0,-5]];perimeter=orthogonalPerimeter;outlineConnect=0;targetShapes=umlLifeline;portConstraint=eastwest;newEdgeStyle={&quot;curved&quot;:0,&quot;rounded&quot;:0};strokeColor=#006633;fontColor=#006633;" vertex="1" parent="XZTjb5_NkRjGm1Cqy_mO-3">
          <mxGeometry x="45" y="90" width="10" height="170" as="geometry" />
        </mxCell>
        <mxCell id="XZTjb5_NkRjGm1Cqy_mO-4" value="central&lt;br&gt;kentico" style="shape=umlLifeline;perimeter=lifelinePerimeter;whiteSpace=wrap;html=1;container=1;dropTarget=0;collapsible=0;recursiveResize=0;outlineConnect=0;portConstraint=eastwest;newEdgeStyle={&quot;curved&quot;:0,&quot;rounded&quot;:0};strokeColor=#006633;fontColor=#006633;" vertex="1" parent="1">
          <mxGeometry x="700" y="100" width="100" height="300" as="geometry" />
        </mxCell>
        <mxCell id="XZTjb5_NkRjGm1Cqy_mO-22" value="" style="html=1;points=[[0,0,0,0,5],[0,1,0,0,-5],[1,0,0,0,5],[1,1,0,0,-5]];perimeter=orthogonalPerimeter;outlineConnect=0;targetShapes=umlLifeline;portConstraint=eastwest;newEdgeStyle={&quot;curved&quot;:0,&quot;rounded&quot;:0};strokeColor=#006633;fontColor=#006633;" vertex="1" parent="XZTjb5_NkRjGm1Cqy_mO-4">
          <mxGeometry x="45" y="160" width="10" height="110" as="geometry" />
        </mxCell>
        <mxCell id="XZTjb5_NkRjGm1Cqy_mO-6" value="opens pdus popup" style="html=1;verticalAlign=bottom;endArrow=block;curved=0;rounded=0;entryX=0;entryY=0;entryDx=0;entryDy=5;strokeColor=#006633;fontColor=#006633;" edge="1" target="XZTjb5_NkRjGm1Cqy_mO-5" parent="1" source="XZTjb5_NkRjGm1Cqy_mO-1">
          <mxGeometry relative="1" as="geometry">
            <mxPoint x="190" y="195" as="sourcePoint" />
          </mxGeometry>
        </mxCell>
        <mxCell id="XZTjb5_NkRjGm1Cqy_mO-7" value="return" style="html=1;verticalAlign=bottom;endArrow=open;dashed=1;endSize=8;curved=0;rounded=0;exitX=0;exitY=1;exitDx=0;exitDy=-5;strokeColor=#006633;fontColor=#006633;" edge="1" source="XZTjb5_NkRjGm1Cqy_mO-5" parent="1" target="XZTjb5_NkRjGm1Cqy_mO-1">
          <mxGeometry relative="1" as="geometry">
            <mxPoint x="190" y="265" as="targetPoint" />
          </mxGeometry>
        </mxCell>
        <mxCell id="XZTjb5_NkRjGm1Cqy_mO-9" value="activestatementitemv2&lt;br&gt;/pdus_customer_facing" style="html=1;verticalAlign=bottom;endArrow=block;curved=0;rounded=0;entryX=0;entryY=0;entryDx=0;entryDy=5;strokeColor=#006633;fontColor=#006633;" edge="1" target="XZTjb5_NkRjGm1Cqy_mO-8" parent="1" source="XZTjb5_NkRjGm1Cqy_mO-5">
          <mxGeometry relative="1" as="geometry">
            <mxPoint x="385" y="195" as="sourcePoint" />
          </mxGeometry>
        </mxCell>
        <mxCell id="XZTjb5_NkRjGm1Cqy_mO-10" value="return" style="html=1;verticalAlign=bottom;endArrow=open;dashed=1;endSize=8;curved=0;rounded=0;exitX=0;exitY=1;exitDx=0;exitDy=-5;strokeColor=#006633;fontColor=#006633;" edge="1" source="XZTjb5_NkRjGm1Cqy_mO-8" parent="1" target="XZTjb5_NkRjGm1Cqy_mO-5">
          <mxGeometry relative="1" as="geometry">
            <mxPoint x="385" y="265" as="targetPoint" />
          </mxGeometry>
        </mxCell>
        <mxCell id="XZTjb5_NkRjGm1Cqy_mO-11" value="check if cache available?" style="strokeWidth=1;html=1;shape=mxgraph.flowchart.decision;whiteSpace=wrap;strokeColor=#006633;fontColor=#006633;" vertex="1" parent="1">
          <mxGeometry x="530" y="220" width="100" height="100" as="geometry" />
        </mxCell>
        <mxCell id="XZTjb5_NkRjGm1Cqy_mO-20" value="dispatch" style="html=1;verticalAlign=bottom;endArrow=block;rounded=0;entryX=0.5;entryY=0;entryDx=0;entryDy=0;entryPerimeter=0;edgeStyle=orthogonalEdgeStyle;exitX=1;exitY=0;exitDx=0;exitDy=5;exitPerimeter=0;strokeColor=#006633;fontColor=#006633;" edge="1" parent="1" source="XZTjb5_NkRjGm1Cqy_mO-8" target="XZTjb5_NkRjGm1Cqy_mO-11">
          <mxGeometry width="80" relative="1" as="geometry">
            <mxPoint x="480" y="200" as="sourcePoint" />
            <mxPoint x="560" y="200" as="targetPoint" />
            <Array as="points">
              <mxPoint x="465" y="200" />
              <mxPoint x="580" y="200" />
            </Array>
          </mxGeometry>
        </mxCell>
        <mxCell id="XZTjb5_NkRjGm1Cqy_mO-21" value="No" style="html=1;verticalAlign=bottom;endArrow=block;curved=0;rounded=0;exitX=1;exitY=0.495;exitDx=0;exitDy=0;exitPerimeter=0;strokeColor=#006633;fontColor=#006633;" edge="1" parent="1" source="XZTjb5_NkRjGm1Cqy_mO-11" target="XZTjb5_NkRjGm1Cqy_mO-22">
          <mxGeometry width="80" relative="1" as="geometry">
            <mxPoint x="640" y="269.5" as="sourcePoint" />
            <mxPoint x="720" y="269.5" as="targetPoint" />
          </mxGeometry>
        </mxCell>
        <mxCell id="XZTjb5_NkRjGm1Cqy_mO-23" value="yes" style="html=1;verticalAlign=bottom;endArrow=block;rounded=0;exitX=0.5;exitY=1;exitDx=0;exitDy=0;exitPerimeter=0;edgeStyle=orthogonalEdgeStyle;strokeColor=#006633;fontColor=#006633;" edge="1" parent="1" source="XZTjb5_NkRjGm1Cqy_mO-11" target="XZTjb5_NkRjGm1Cqy_mO-8">
          <mxGeometry width="80" relative="1" as="geometry">
            <mxPoint x="380" y="240" as="sourcePoint" />
            <mxPoint x="510" y="360" as="targetPoint" />
            <Array as="points">
              <mxPoint x="580" y="355" />
            </Array>
          </mxGeometry>
        </mxCell>
        <mxCell id="XZTjb5_NkRjGm1Cqy_mO-24" value="return" style="html=1;verticalAlign=bottom;endArrow=open;dashed=1;endSize=8;curved=0;rounded=0;strokeColor=#006633;fontColor=#006633;" edge="1" parent="1">
          <mxGeometry relative="1" as="geometry">
            <mxPoint x="749.5" y="354" as="sourcePoint" />
            <mxPoint x="580" y="354" as="targetPoint" />
          </mxGeometry>
        </mxCell>
        <mxCell id="XZTjb5_NkRjGm1Cqy_mO-25" value="show pdus&lt;br&gt;popup" style="text;html=1;align=center;verticalAlign=middle;resizable=0;points=[];autosize=1;strokeColor=none;fillColor=none;fontColor=#006633;" vertex="1" parent="1">
          <mxGeometry x="40" y="310" width="80" height="40" as="geometry" />
        </mxCell>
        <mxCell id="XZTjb5_NkRjGm1Cqy_mO-26" value="up-wcms" style="shape=umlLifeline;perimeter=lifelinePerimeter;whiteSpace=wrap;html=1;container=1;dropTarget=0;collapsible=0;recursiveResize=0;outlineConnect=0;portConstraint=eastwest;newEdgeStyle={&quot;curved&quot;:0,&quot;rounded&quot;:0};strokeColor=#006633;fontColor=#006633;" vertex="1" parent="1">
          <mxGeometry x="380" y="480" width="100" height="320" as="geometry" />
        </mxCell>
        <mxCell id="XZTjb5_NkRjGm1Cqy_mO-32" value="" style="html=1;points=[[0,0,0,0,5],[0,1,0,0,-5],[1,0,0,0,5],[1,1,0,0,-5]];perimeter=orthogonalPerimeter;outlineConnect=0;targetShapes=umlLifeline;portConstraint=eastwest;newEdgeStyle={&quot;curved&quot;:0,&quot;rounded&quot;:0};strokeColor=#006633;fontColor=#006633;" vertex="1" parent="XZTjb5_NkRjGm1Cqy_mO-26">
          <mxGeometry x="45" y="110" width="10" height="180" as="geometry" />
        </mxCell>
        <mxCell id="XZTjb5_NkRjGm1Cqy_mO-27" value="kentico&lt;br&gt;service" style="shape=umlLifeline;perimeter=lifelinePerimeter;whiteSpace=wrap;html=1;container=1;dropTarget=0;collapsible=0;recursiveResize=0;outlineConnect=0;portConstraint=eastwest;newEdgeStyle={&quot;curved&quot;:0,&quot;rounded&quot;:0};strokeColor=#006633;fontColor=#006633;" vertex="1" parent="1">
          <mxGeometry x="690" y="480" width="100" height="320" as="geometry" />
        </mxCell>
        <mxCell id="XZTjb5_NkRjGm1Cqy_mO-29" value="kentico&lt;br&gt;" style="shape=umlLifeline;perimeter=lifelinePerimeter;whiteSpace=wrap;html=1;container=1;dropTarget=0;collapsible=0;recursiveResize=0;outlineConnect=0;portConstraint=eastwest;newEdgeStyle={&quot;curved&quot;:0,&quot;rounded&quot;:0};strokeColor=#006633;fontColor=#006633;" vertex="1" parent="1">
          <mxGeometry x="200" y="480" width="100" height="320" as="geometry" />
        </mxCell>
        <mxCell id="XZTjb5_NkRjGm1Cqy_mO-31" value="" style="html=1;points=[[0,0,0,0,5],[0,1,0,0,-5],[1,0,0,0,5],[1,1,0,0,-5]];perimeter=orthogonalPerimeter;outlineConnect=0;targetShapes=umlLifeline;portConstraint=eastwest;newEdgeStyle={&quot;curved&quot;:0,&quot;rounded&quot;:0};strokeColor=#006633;fontColor=#006633;" vertex="1" parent="XZTjb5_NkRjGm1Cqy_mO-29">
          <mxGeometry x="45" y="110" width="10" height="190" as="geometry" />
        </mxCell>
        <mxCell id="XZTjb5_NkRjGm1Cqy_mO-30" value="" style="shape=umlLifeline;perimeter=lifelinePerimeter;whiteSpace=wrap;html=1;container=1;dropTarget=0;collapsible=0;recursiveResize=0;outlineConnect=0;portConstraint=eastwest;newEdgeStyle={&quot;curved&quot;:0,&quot;rounded&quot;:0};participant=umlActor;strokeColor=#006633;fontColor=#006633;" vertex="1" parent="1">
          <mxGeometry x="70" y="480" width="20" height="320" as="geometry" />
        </mxCell>
        <mxCell id="XZTjb5_NkRjGm1Cqy_mO-33" value="user updates kentico&lt;br&gt;contend" style="html=1;verticalAlign=bottom;endArrow=block;curved=0;rounded=0;strokeColor=#006633;fontColor=#006633;" edge="1" parent="1" target="XZTjb5_NkRjGm1Cqy_mO-29">
          <mxGeometry width="80" relative="1" as="geometry">
            <mxPoint x="80" y="610" as="sourcePoint" />
            <mxPoint x="160" y="610" as="targetPoint" />
          </mxGeometry>
        </mxCell>
        <mxCell id="XZTjb5_NkRjGm1Cqy_mO-34" value="triggers webook&lt;br&gt;ref/v1/public/kentico/webhook" style="html=1;verticalAlign=bottom;endArrow=block;curved=0;rounded=0;strokeColor=#006633;fontColor=#006633;" edge="1" parent="1" target="XZTjb5_NkRjGm1Cqy_mO-32">
          <mxGeometry width="80" relative="1" as="geometry">
            <mxPoint x="255" y="610" as="sourcePoint" />
            <mxPoint x="425" y="610" as="targetPoint" />
          </mxGeometry>
        </mxCell>
        <mxCell id="XZTjb5_NkRjGm1Cqy_mO-35" value="clear pdus from redis" style="html=1;verticalAlign=bottom;endArrow=block;curved=0;rounded=0;strokeColor=#006633;fontColor=#006633;" edge="1" parent="1" target="XZTjb5_NkRjGm1Cqy_mO-37">
          <mxGeometry width="80" relative="1" as="geometry">
            <mxPoint x="435" y="610.02" as="sourcePoint" />
            <mxPoint x="570" y="610" as="targetPoint" />
          </mxGeometry>
        </mxCell>
        <mxCell id="XZTjb5_NkRjGm1Cqy_mO-36" value="Redis" style="shape=umlLifeline;perimeter=lifelinePerimeter;whiteSpace=wrap;html=1;container=1;dropTarget=0;collapsible=0;recursiveResize=0;outlineConnect=0;portConstraint=eastwest;newEdgeStyle={&quot;curved&quot;:0,&quot;rounded&quot;:0};strokeColor=#006633;fontColor=#006633;" vertex="1" parent="1">
          <mxGeometry x="540" y="480" width="100" height="320" as="geometry" />
        </mxCell>
        <mxCell id="XZTjb5_NkRjGm1Cqy_mO-37" value="" style="html=1;points=[[0,0,0,0,5],[0,1,0,0,-5],[1,0,0,0,5],[1,1,0,0,-5]];perimeter=orthogonalPerimeter;outlineConnect=0;targetShapes=umlLifeline;portConstraint=eastwest;newEdgeStyle={&quot;curved&quot;:0,&quot;rounded&quot;:0};strokeColor=#006633;fontColor=#006633;" vertex="1" parent="XZTjb5_NkRjGm1Cqy_mO-36">
          <mxGeometry x="45" y="95" width="10" height="75" as="geometry" />
        </mxCell>
        <mxCell id="XZTjb5_NkRjGm1Cqy_mO-42" value="" style="html=1;points=[[0,0,0,0,5],[0,1,0,0,-5],[1,0,0,0,5],[1,1,0,0,-5]];perimeter=orthogonalPerimeter;outlineConnect=0;targetShapes=umlLifeline;portConstraint=eastwest;newEdgeStyle={&quot;curved&quot;:0,&quot;rounded&quot;:0};strokeColor=#006633;fontColor=#006633;" vertex="1" parent="XZTjb5_NkRjGm1Cqy_mO-36">
          <mxGeometry x="45" y="220" width="10" height="60" as="geometry" />
        </mxCell>
        <mxCell id="XZTjb5_NkRjGm1Cqy_mO-38" value="get pdus from kentico" style="html=1;verticalAlign=bottom;endArrow=block;curved=0;rounded=0;strokeColor=#006633;fontColor=#006633;" edge="1" parent="1" source="XZTjb5_NkRjGm1Cqy_mO-28">
          <mxGeometry width="80" relative="1" as="geometry">
            <mxPoint x="597" y="649.9999999999999" as="sourcePoint" />
            <mxPoint x="739.5" y="649.9999999999999" as="targetPoint" />
          </mxGeometry>
        </mxCell>
        <mxCell id="XZTjb5_NkRjGm1Cqy_mO-39" value="return" style="html=1;verticalAlign=bottom;endArrow=open;dashed=1;endSize=8;curved=0;rounded=0;strokeColor=#006633;fontColor=#006633;" edge="1" parent="1" source="XZTjb5_NkRjGm1Cqy_mO-36" target="XZTjb5_NkRjGm1Cqy_mO-32">
          <mxGeometry relative="1" as="geometry">
            <mxPoint x="450" y="630" as="targetPoint" />
            <mxPoint x="630" y="650" as="sourcePoint" />
          </mxGeometry>
        </mxCell>
        <mxCell id="XZTjb5_NkRjGm1Cqy_mO-40" value="return" style="html=1;verticalAlign=bottom;endArrow=open;dashed=1;endSize=8;curved=0;rounded=0;strokeColor=#006633;fontColor=#006633;" edge="1" parent="1" target="XZTjb5_NkRjGm1Cqy_mO-32">
          <mxGeometry relative="1" as="geometry">
            <mxPoint x="460" y="685" as="targetPoint" />
            <mxPoint x="735" y="684.5" as="sourcePoint" />
          </mxGeometry>
        </mxCell>
        <mxCell id="XZTjb5_NkRjGm1Cqy_mO-41" value="" style="html=1;verticalAlign=bottom;endArrow=block;curved=0;rounded=0;strokeColor=#006633;fontColor=#006633;" edge="1" parent="1" source="XZTjb5_NkRjGm1Cqy_mO-32">
          <mxGeometry width="80" relative="1" as="geometry">
            <mxPoint x="460" y="660" as="sourcePoint" />
            <mxPoint x="735" y="657" as="targetPoint" />
          </mxGeometry>
        </mxCell>
        <mxCell id="XZTjb5_NkRjGm1Cqy_mO-28" value="" style="html=1;points=[[0,0,0,0,5],[0,1,0,0,-5],[1,0,0,0,5],[1,1,0,0,-5]];perimeter=orthogonalPerimeter;outlineConnect=0;targetShapes=umlLifeline;portConstraint=eastwest;newEdgeStyle={&quot;curved&quot;:0,&quot;rounded&quot;:0};strokeColor=#006633;fontColor=#006633;" vertex="1" parent="1">
          <mxGeometry x="735" y="630" width="10" height="70" as="geometry" />
        </mxCell>
        <mxCell id="XZTjb5_NkRjGm1Cqy_mO-43" value="update the content" style="html=1;verticalAlign=bottom;endArrow=block;curved=0;rounded=0;strokeColor=#006633;fontColor=#006633;" edge="1" parent="1">
          <mxGeometry width="80" relative="1" as="geometry">
            <mxPoint x="436" y="713.02" as="sourcePoint" />
            <mxPoint x="586" y="713" as="targetPoint" />
          </mxGeometry>
        </mxCell>
        <mxCell id="XZTjb5_NkRjGm1Cqy_mO-44" value="return" style="html=1;verticalAlign=bottom;endArrow=open;dashed=1;endSize=8;curved=0;rounded=0;strokeColor=#006633;fontColor=#006633;" edge="1" parent="1">
          <mxGeometry relative="1" as="geometry">
            <mxPoint x="435" y="738" as="targetPoint" />
            <mxPoint x="585" y="738" as="sourcePoint" />
          </mxGeometry>
        </mxCell>
        <mxCell id="XZTjb5_NkRjGm1Cqy_mO-45" value="return" style="html=1;verticalAlign=bottom;endArrow=open;dashed=1;endSize=8;curved=0;rounded=0;strokeColor=#006633;fontColor=#006633;" edge="1" parent="1">
          <mxGeometry relative="1" as="geometry">
            <mxPoint x="255" y="740" as="targetPoint" />
            <mxPoint x="425" y="740" as="sourcePoint" />
          </mxGeometry>
        </mxCell>
        <mxCell id="XZTjb5_NkRjGm1Cqy_mO-46" value="return" style="html=1;verticalAlign=bottom;endArrow=open;dashed=1;endSize=8;curved=0;rounded=0;strokeColor=#006633;fontColor=#006633;" edge="1" parent="1" source="XZTjb5_NkRjGm1Cqy_mO-31">
          <mxGeometry relative="1" as="geometry">
            <mxPoint x="80" y="740" as="targetPoint" />
            <mxPoint x="220" y="740" as="sourcePoint" />
          </mxGeometry>
        </mxCell>
      </root>
    </mxGraphModel>
  </diagram>
</mxfile>
